<svg width="16" height="16" viewBox="0 0 16 16" fill="none" xmlns="http://www.w3.org/2000/svg">
<path d="M2.1459 2.85402C2.09941 2.80753 2.06254 2.75234 2.03738 2.6916C2.01222 2.63087 1.99927 2.56577 1.99927 2.50002C1.99927 2.43428 2.01222 2.36918 2.03738 2.30844C2.06254 2.2477 2.09941 2.19251 2.1459 2.14602C2.19239 2.09953 2.24758 2.06266 2.30832 2.0375C2.36906 2.01234 2.43416 1.99939 2.4999 1.99939C2.56564 1.99939 2.63074 2.01234 2.69148 2.0375C2.75222 2.06266 2.80741 2.09953 2.8539 2.14602L7.9999 7.29302L13.1459 2.14602C13.1924 2.09953 13.2476 2.06266 13.3083 2.0375C13.3691 2.01234 13.4342 1.99939 13.4999 1.99939C13.5656 1.99939 13.6307 2.01234 13.6915 2.0375C13.7522 2.06266 13.8074 2.09953 13.8539 2.14602C13.9004 2.19251 13.9373 2.2477 13.9624 2.30844C13.9876 2.36918 14.0005 2.43428 14.0005 2.50002C14.0005 2.56577 13.9876 2.63087 13.9624 2.6916C13.9373 2.75234 13.9004 2.80753 13.8539 2.85402L8.7069 8.00002L13.8539 13.146C13.9004 13.1925 13.9373 13.2477 13.9624 13.3084C13.9876 13.3692 14.0005 13.4343 14.0005 13.5C14.0005 13.5658 13.9876 13.6309 13.9624 13.6916C13.9373 13.7523 13.9004 13.8075 13.8539 13.854C13.8074 13.9005 13.7522 13.9374 13.6915 13.9625C13.6307 13.9877 13.5656 14.0007 13.4999 14.0007C13.4342 14.0007 13.3691 13.9877 13.3083 13.9625C13.2476 13.9374 13.1924 13.9005 13.1459 13.854L7.9999 8.70702L2.8539 13.854C2.80741 13.9005 2.75222 13.9374 2.69148 13.9625C2.63074 13.9877 2.56564 14.0007 2.4999 14.0007C2.43416 14.0007 2.36906 13.9877 2.30832 13.9625C2.24758 13.9374 2.19239 13.9005 2.1459 13.854C2.09941 13.8075 2.06254 13.7523 2.03738 13.6916C2.01222 13.6309 1.99927 13.5658 1.99927 13.5C1.99927 13.4343 2.01222 13.3692 2.03738 13.3084C2.06254 13.2477 2.09941 13.1925 2.1459 13.146L7.2929 8.00002L2.1459 2.85402Z" fill="white"/>
</svg>
